<svg xmlns="http://www.w3.org/2000/svg" width="82" height="82" viewBox="0 0 82 82">
  <g id="Group_1016" data-name="Group 1016" transform="translate(-1258 -6706)">
    <circle id="Ellipse_77" data-name="Ellipse 77" cx="41" cy="41" r="41" transform="translate(1258 6706)" fill="#fff"/>
    <path id="linkedin" d="M588.741,791h-8.747V768.258h8.747Zm-4.475-26.379a4.3,4.3,0,1,1,4.271-4.3A4.288,4.288,0,0,1,584.266,764.621ZM614.98,791h-7V778.756c0-3.358-1.482-5.232-4.139-5.232-2.891,0-4.608,1.952-4.608,5.232V791h-7V768.258h7v2.559a8.432,8.432,0,0,1,7.142-3.853c4.949,0,8.6,3.02,8.6,9.267S614.98,791,614.98,791Z" transform="translate(703 5970)" fill="#ad1231"/>
  </g>
</svg>
